<mxfile host="65bd71144e">
    <diagram id="3oKSRpvQD-3Rtn6nESA1" name="Page-1">
        <mxGraphModel dx="713" dy="502" grid="1" gridSize="10" guides="1" tooltips="1" connect="1" arrows="1" fold="1" page="1" pageScale="1" pageWidth="850" pageHeight="1100" math="0" shadow="0">
            <root>
                <mxCell id="0"/>
                <mxCell id="1" parent="0"/>
                <mxCell id="K8wivl5P5FMc2v_rYO8I-10" value="" style="swimlane;childLayout=stackLayout;horizontal=1;startSize=20;horizontalStack=0;fillColor=#f5f5f5;rounded=1;fontSize=14;fontStyle=0;strokeWidth=2;resizeParent=0;resizeLast=1;shadow=0;dashed=0;align=center;strokeColor=#666666;fontColor=#333333;" parent="1" vertex="1">
                    <mxGeometry x="90" y="150" width="90" height="130" as="geometry">
                        <mxRectangle x="90" y="210" width="50" height="40" as="alternateBounds"/>
                    </mxGeometry>
                </mxCell>
                <mxCell id="K8wivl5P5FMc2v_rYO8I-20" value="Login" style="text;html=1;align=center;verticalAlign=middle;resizable=0;points=[];;autosize=1;" parent="K8wivl5P5FMc2v_rYO8I-10" vertex="1">
                    <mxGeometry y="20" width="90" height="110" as="geometry"/>
                </mxCell>
                <mxCell id="NVUlYLoKK_l5uXwqNmR6-7" value="ProfileTab" style="edgeStyle=orthogonalEdgeStyle;rounded=0;orthogonalLoop=1;jettySize=auto;html=1;" parent="1" source="K8wivl5P5FMc2v_rYO8I-23" target="NVUlYLoKK_l5uXwqNmR6-6" edge="1">
                    <mxGeometry relative="1" as="geometry">
                        <Array as="points">
                            <mxPoint x="260" y="220"/>
                            <mxPoint x="260" y="220"/>
                        </Array>
                    </mxGeometry>
                </mxCell>
                <mxCell id="K8wivl5P5FMc2v_rYO8I-23" value="" style="swimlane;childLayout=stackLayout;horizontal=1;startSize=19;horizontalStack=0;fillColor=#fff2cc;rounded=1;fontSize=14;fontStyle=0;strokeWidth=2;resizeParent=0;resizeLast=1;shadow=0;dashed=0;align=center;strokeColor=#d6b656;" parent="1" vertex="1">
                    <mxGeometry x="250" y="230" width="90" height="130" as="geometry">
                        <mxRectangle x="260" y="240" width="50" height="40" as="alternateBounds"/>
                    </mxGeometry>
                </mxCell>
                <mxCell id="K8wivl5P5FMc2v_rYO8I-24" value="Discover&lt;br&gt;+&lt;br&gt;Show &lt;br&gt;Partner&lt;br&gt;Detail" style="text;html=1;align=center;verticalAlign=middle;resizable=0;points=[];;autosize=1;" parent="K8wivl5P5FMc2v_rYO8I-23" vertex="1">
                    <mxGeometry y="19" width="90" height="111" as="geometry"/>
                </mxCell>
                <mxCell id="K8wivl5P5FMc2v_rYO8I-25" value="" style="swimlane;childLayout=stackLayout;horizontal=1;startSize=19;horizontalStack=0;fillColor=#e1d5e7;rounded=1;fontSize=14;fontStyle=0;strokeWidth=2;resizeParent=0;resizeLast=1;shadow=0;dashed=0;align=center;strokeColor=#9673a6;" parent="1" vertex="1">
                    <mxGeometry x="400" y="230" width="90" height="130" as="geometry">
                        <mxRectangle x="260" y="240" width="50" height="40" as="alternateBounds"/>
                    </mxGeometry>
                </mxCell>
                <mxCell id="K8wivl5P5FMc2v_rYO8I-26" value="Chats List&lt;br&gt;+&lt;br&gt;Selected&lt;br&gt;Chat&lt;br&gt;or&lt;br&gt;Partner&lt;br&gt;Detail" style="text;html=1;align=center;verticalAlign=middle;resizable=0;points=[];;autosize=1;" parent="K8wivl5P5FMc2v_rYO8I-25" vertex="1">
                    <mxGeometry y="19" width="90" height="111" as="geometry"/>
                </mxCell>
                <mxCell id="K8wivl5P5FMc2v_rYO8I-38" value="ChatTab" style="edgeStyle=orthogonalEdgeStyle;rounded=0;orthogonalLoop=1;jettySize=auto;html=1;" parent="1" source="K8wivl5P5FMc2v_rYO8I-24" target="K8wivl5P5FMc2v_rYO8I-26" edge="1">
                    <mxGeometry y="10" relative="1" as="geometry">
                        <Array as="points">
                            <mxPoint x="370" y="340"/>
                            <mxPoint x="370" y="340"/>
                        </Array>
                        <mxPoint as="offset"/>
                    </mxGeometry>
                </mxCell>
                <mxCell id="K8wivl5P5FMc2v_rYO8I-44" style="edgeStyle=orthogonalEdgeStyle;rounded=0;orthogonalLoop=1;jettySize=auto;html=1;" parent="1" source="K8wivl5P5FMc2v_rYO8I-20" target="K8wivl5P5FMc2v_rYO8I-23" edge="1">
                    <mxGeometry relative="1" as="geometry">
                        <Array as="points">
                            <mxPoint x="215" y="225"/>
                            <mxPoint x="215" y="270"/>
                        </Array>
                    </mxGeometry>
                </mxCell>
                <mxCell id="5" value="Login" style="edgeLabel;html=1;align=center;verticalAlign=middle;resizable=0;points=[];" vertex="1" connectable="0" parent="K8wivl5P5FMc2v_rYO8I-44">
                    <mxGeometry x="-0.5403" relative="1" as="geometry">
                        <mxPoint as="offset"/>
                    </mxGeometry>
                </mxCell>
                <mxCell id="K8wivl5P5FMc2v_rYO8I-45" value="" style="swimlane;childLayout=stackLayout;horizontal=1;startSize=20;horizontalStack=0;fillColor=#dae8fc;rounded=1;fontSize=14;fontStyle=0;strokeWidth=2;resizeParent=0;resizeLast=1;shadow=0;dashed=0;align=center;strokeColor=#6c8ebf;" parent="1" vertex="1">
                    <mxGeometry x="90" y="320" width="90" height="130" as="geometry">
                        <mxRectangle x="260" y="240" width="50" height="40" as="alternateBounds"/>
                    </mxGeometry>
                </mxCell>
                <mxCell id="K8wivl5P5FMc2v_rYO8I-46" value="Register" style="text;html=1;align=center;verticalAlign=middle;resizable=0;points=[];;autosize=1;" parent="K8wivl5P5FMc2v_rYO8I-45" vertex="1">
                    <mxGeometry y="20" width="90" height="110" as="geometry"/>
                </mxCell>
                <mxCell id="K8wivl5P5FMc2v_rYO8I-47" style="edgeStyle=orthogonalEdgeStyle;rounded=0;orthogonalLoop=1;jettySize=auto;html=1;entryX=0.5;entryY=0;entryDx=0;entryDy=0;startArrow=classic;startFill=1;" parent="1" source="K8wivl5P5FMc2v_rYO8I-20" target="K8wivl5P5FMc2v_rYO8I-45" edge="1">
                    <mxGeometry relative="1" as="geometry"/>
                </mxCell>
                <mxCell id="K8wivl5P5FMc2v_rYO8I-48" style="edgeStyle=orthogonalEdgeStyle;rounded=0;orthogonalLoop=1;jettySize=auto;html=1;startArrow=none;startFill=0;" parent="1" target="K8wivl5P5FMc2v_rYO8I-20" edge="1">
                    <mxGeometry relative="1" as="geometry">
                        <mxPoint x="50" y="225" as="sourcePoint"/>
                    </mxGeometry>
                </mxCell>
                <mxCell id="NVUlYLoKK_l5uXwqNmR6-5" value="" style="swimlane;childLayout=stackLayout;horizontal=1;startSize=19;horizontalStack=0;fillColor=#d5e8d4;rounded=1;fontSize=14;fontStyle=0;strokeWidth=2;resizeParent=0;resizeLast=1;shadow=0;dashed=0;align=center;strokeColor=#82b366;" parent="1" vertex="1">
                    <mxGeometry x="250" y="50" width="90" height="130" as="geometry">
                        <mxRectangle x="260" y="240" width="50" height="40" as="alternateBounds"/>
                    </mxGeometry>
                </mxCell>
                <mxCell id="NVUlYLoKK_l5uXwqNmR6-6" value="Profile" style="text;html=1;align=center;verticalAlign=middle;resizable=0;points=[];;autosize=1;" parent="NVUlYLoKK_l5uXwqNmR6-5" vertex="1">
                    <mxGeometry y="19" width="90" height="111" as="geometry"/>
                </mxCell>
                <mxCell id="NVUlYLoKK_l5uXwqNmR6-8" value="DiscoverTab" style="edgeStyle=orthogonalEdgeStyle;rounded=0;orthogonalLoop=1;jettySize=auto;html=1;" parent="1" source="NVUlYLoKK_l5uXwqNmR6-6" target="K8wivl5P5FMc2v_rYO8I-23" edge="1">
                    <mxGeometry relative="1" as="geometry">
                        <Array as="points">
                            <mxPoint x="330" y="200"/>
                            <mxPoint x="330" y="200"/>
                        </Array>
                    </mxGeometry>
                </mxCell>
                <mxCell id="NVUlYLoKK_l5uXwqNmR6-9" value="Discover&lt;br&gt;Tab" style="edgeStyle=orthogonalEdgeStyle;rounded=0;orthogonalLoop=1;jettySize=auto;html=1;" parent="1" source="K8wivl5P5FMc2v_rYO8I-26" target="K8wivl5P5FMc2v_rYO8I-24" edge="1">
                    <mxGeometry x="-0.0011" y="-20" relative="1" as="geometry">
                        <Array as="points">
                            <mxPoint x="380" y="280"/>
                            <mxPoint x="380" y="280"/>
                        </Array>
                        <mxPoint as="offset"/>
                    </mxGeometry>
                </mxCell>
                <mxCell id="NVUlYLoKK_l5uXwqNmR6-32" style="edgeStyle=orthogonalEdgeStyle;rounded=0;orthogonalLoop=1;jettySize=auto;html=1;" parent="1" source="K8wivl5P5FMc2v_rYO8I-45" target="K8wivl5P5FMc2v_rYO8I-23" edge="1">
                    <mxGeometry relative="1" as="geometry">
                        <mxPoint x="250" y="465" as="targetPoint"/>
                        <Array as="points">
                            <mxPoint x="215" y="385"/>
                            <mxPoint x="215" y="320"/>
                        </Array>
                    </mxGeometry>
                </mxCell>
                <mxCell id="6" value="Signup" style="edgeLabel;html=1;align=center;verticalAlign=middle;resizable=0;points=[];" vertex="1" connectable="0" parent="NVUlYLoKK_l5uXwqNmR6-32">
                    <mxGeometry x="-0.5367" relative="1" as="geometry">
                        <mxPoint y="-5" as="offset"/>
                    </mxGeometry>
                </mxCell>
                <mxCell id="3" style="edgeStyle=none;html=1;" edge="1" parent="1" source="NVUlYLoKK_l5uXwqNmR6-6" target="K8wivl5P5FMc2v_rYO8I-10">
                    <mxGeometry relative="1" as="geometry"/>
                </mxCell>
                <mxCell id="4" value="Logout" style="edgeLabel;html=1;align=center;verticalAlign=middle;resizable=0;points=[];" vertex="1" connectable="0" parent="3">
                    <mxGeometry x="0.3552" y="1" relative="1" as="geometry">
                        <mxPoint x="7" y="-28" as="offset"/>
                    </mxGeometry>
                </mxCell>
            </root>
        </mxGraphModel>
    </diagram>
</mxfile>